<svg width="85" height="24" viewBox="0 0 85 24" fill="none" xmlns="http://www.w3.org/2000/svg">
<g id="Group">
<path id="Vector" fill-rule="evenodd" clip-rule="evenodd" d="M35.7362 23.8C15.4809 22.9319 0 18.1574 0 12.0809C0 5.42554 18.9532 0 42.3191 0C65.6851 0 85 4.9915 85 11.1404C85 12.8766 83.1915 14.3958 80.4427 15.8426C82.3234 14.6851 83.1915 13.2383 83.1915 11.8638C83.1915 6.22127 65.6127 1.80851 44.3447 1.80851C23.0767 1.80851 5.85958 6.80001 5.85958 12.8766C5.93193 18.1574 18.6638 22.6427 35.7362 23.8Z" fill="#FFC829"/>
<path id="Vector_2" d="M18.3744 15.6256C18.3021 15.6256 18.1574 15.6256 17.9404 15.5533C17.7234 15.481 17.651 15.1916 17.5787 14.9022L17.0723 10.5618C17.0723 10.4895 17.0723 10.2725 16.9276 10.2725C16.8553 10.2725 16.783 10.3448 16.783 10.4171L14.8298 14.7575L12.7319 10.4895C12.7319 10.4171 12.6595 10.3448 12.5872 10.3448C12.5872 10.3448 12.4425 10.3448 12.4425 10.5618L11.9361 15.1193C11.9361 15.4087 11.8638 15.5533 11.7191 15.6256C11.6468 15.6256 11.5744 15.6256 11.5021 15.6256C11.4297 15.6256 11.3574 15.6979 11.3574 15.6979C11.3574 15.7702 11.3574 15.8428 11.5744 15.8428C11.7191 15.8428 11.8638 15.8428 12.0085 15.8428C12.0808 15.8428 12.1532 15.8428 12.1532 15.8428C12.1532 15.8428 12.2255 15.8428 12.2978 15.8428C12.4425 15.8428 12.6595 15.8428 12.8042 15.8428C12.8766 15.8428 13.0212 15.8428 13.0212 15.6979C13.0212 15.6256 12.9489 15.6256 12.8766 15.6256C12.8042 15.6256 12.7319 15.6256 12.6595 15.6256C12.5872 15.6256 12.5148 15.5533 12.5148 15.481C12.5148 15.3362 12.5148 15.2639 12.5148 15.1193L12.8042 12.081C13.0212 12.5874 13.6 13.7448 13.6723 13.8895V13.9618C14.1787 14.9747 14.3957 15.4087 14.4681 15.5533C14.6127 15.8428 14.6127 15.9151 14.7574 15.9151C14.8298 15.9151 14.9021 15.8428 14.9744 15.6256L16.6383 12.081L16.9276 15.481C16.9276 15.5533 16.9276 15.6256 16.9276 15.6979C16.8553 15.6979 16.8553 15.7702 16.8553 15.8428C16.8553 15.9874 17 15.9874 17.1447 15.9874C17.434 15.9874 18.1574 16.0597 18.3021 16.0597C18.5191 16.0597 18.5191 15.9874 18.5191 15.9151C18.5191 15.6979 18.5191 15.6256 18.3744 15.6256Z" fill="white"/>
<path id="Vector_3" d="M22.1365 14.7572C22.0642 14.7572 21.9919 14.8295 21.9919 14.9018C21.9196 15.1912 21.8473 15.2635 21.7024 15.3358C21.5578 15.4084 21.2684 15.4084 21.0515 15.4084C20.4003 15.4084 20.328 15.3358 20.328 14.9018C20.328 14.8295 20.328 14.3231 20.328 14.0338V13.1657C20.4728 13.1657 21.1238 13.1657 21.2684 13.1657C21.5578 13.1657 21.5578 13.3104 21.5578 13.3827C21.5578 13.4551 21.5578 13.5274 21.5578 13.5997C21.5578 13.6721 21.6301 13.7444 21.7024 13.7444C21.8473 13.7444 21.8473 13.5997 21.8473 13.5274C21.8473 13.4551 21.8473 13.238 21.8473 13.0933C21.8473 12.9487 21.8473 12.8763 21.9196 12.804C21.9196 12.7316 21.9196 12.7316 21.9196 12.7316C21.9196 12.6593 21.8473 12.587 21.8473 12.587C21.775 12.587 21.775 12.6593 21.7024 12.7316C21.6301 12.804 21.5578 12.804 21.4132 12.804C21.2684 12.804 20.762 12.804 20.328 12.804V10.8508C20.4728 10.8508 21.1238 10.8508 21.2684 10.8508C21.6301 10.9231 21.7024 10.9955 21.7024 11.0678C21.7024 11.1402 21.7024 11.2125 21.7024 11.2848C21.7024 11.4295 21.775 11.4295 21.8473 11.4295C21.9196 11.4295 21.9196 11.4295 21.9919 11.2848C21.9919 11.2125 21.9919 11.0678 21.9919 10.9955C21.9919 10.9231 21.9919 10.8508 21.9919 10.8508C21.9919 10.7061 21.9919 10.6338 22.0642 10.6338C22.0642 10.5614 22.0642 10.5614 22.0642 10.5614C22.0642 10.4167 21.9919 10.4167 21.9919 10.4167C21.9196 10.4167 21.9196 10.4167 21.9196 10.4167C21.8473 10.4167 21.775 10.4167 21.6301 10.4167C21.4855 10.4167 20.1111 10.4167 20.0388 10.4167H19.7494C19.6045 10.4167 19.3876 10.4167 19.243 10.4167C19.0982 10.4167 19.0259 10.4891 19.0259 10.5614C19.0259 10.6338 19.0982 10.7061 19.1705 10.7061C19.243 10.7061 19.3153 10.7061 19.3876 10.7061C19.6045 10.7785 19.6045 10.7785 19.6045 11.0678C19.6045 11.2848 19.6045 11.5019 19.6045 12.587V13.7444C19.6045 14.3955 19.6045 14.9741 19.6045 15.2635C19.6045 15.4807 19.5322 15.553 19.4599 15.553C19.3876 15.553 19.3153 15.553 19.243 15.553C19.1705 15.553 19.0982 15.6253 19.0982 15.6976C19.0982 15.7699 19.1705 15.8424 19.3153 15.8424C19.3876 15.8424 19.4599 15.8424 19.4599 15.8424C19.5322 15.8424 19.6048 15.8424 19.6771 15.8424C19.8217 15.8424 19.9663 15.8424 19.9663 15.8424C20.1111 15.8424 20.2557 15.8424 20.5451 15.8424H20.6897C20.9069 15.8424 21.2684 15.8424 21.7024 15.8424C21.9919 15.8424 22.0642 15.8424 22.1365 15.6253C22.1365 15.4807 22.209 14.9743 22.209 14.9018C22.2813 14.9018 22.2813 14.7572 22.1365 14.7572Z" fill="white"/>
<path id="Vector_4" d="M28.4297 15.6253C28.3574 15.6253 28.2851 15.6253 28.1403 15.6253C27.9234 15.6253 27.7062 15.4807 27.3445 15.1189C26.983 14.7572 26.549 14.1784 26.1149 13.5997L25.9701 13.3827C26.549 12.8763 26.7659 12.2976 26.7659 11.7189C26.7659 11.2125 26.4764 10.8508 26.2595 10.7061C25.8978 10.4167 25.3914 10.4167 24.9574 10.4167C24.8128 10.4167 24.5957 10.4167 24.3787 10.4167C24.2339 10.4167 24.1616 10.4167 24.1616 10.4167H24.0893C23.9447 10.4167 23.6553 10.4167 23.3658 10.4167C23.2212 10.4167 23.1489 10.4891 23.1489 10.5614C23.1489 10.6338 23.2212 10.7061 23.2935 10.7061C23.3658 10.7061 23.4381 10.7061 23.5107 10.7061C23.7276 10.7785 23.7276 10.7785 23.7276 11.0678C23.7276 11.2848 23.7276 11.5019 23.7276 12.587V13.7444C23.7276 14.3955 23.7276 14.9741 23.7276 15.2635C23.7276 15.4807 23.6553 15.553 23.583 15.6253C23.5107 15.6253 23.4381 15.6253 23.3658 15.6253C23.2935 15.6253 23.2212 15.6976 23.2212 15.7699C23.2212 15.8424 23.2935 15.9147 23.4381 15.9147C23.583 15.9147 23.9447 15.9147 24.0893 15.9147H24.1616C24.3062 15.9147 24.668 15.9147 24.9574 15.9147C25.102 15.9147 25.1743 15.8424 25.1743 15.7699C25.1743 15.6976 25.102 15.6253 25.0297 15.6253C24.9574 15.6253 24.8128 15.6253 24.7403 15.6253C24.5957 15.6253 24.5234 15.553 24.5234 15.3358C24.5234 15.0466 24.5234 14.4678 24.5234 13.8168V13.6721H25.3914C25.4637 13.7444 25.536 13.8891 25.6809 14.0338C25.8255 14.2508 26.0424 14.4678 26.1872 14.6849L26.2595 14.8295C26.6213 15.2635 26.8382 15.6253 27.1276 15.7699C27.3445 15.8424 27.4893 15.9147 27.9234 15.9147H28.4297C28.502 15.9147 28.6466 15.9147 28.6466 15.7699C28.5743 15.6976 28.502 15.6253 28.4297 15.6253ZM26.0424 12.1529C26.0424 12.587 25.8978 13.021 25.6809 13.1657C25.536 13.238 25.3191 13.3104 25.1743 13.3104C24.8128 13.3104 24.5234 13.238 24.451 13.238V10.8508C24.5234 10.8508 24.668 10.7785 24.8851 10.7785C25.6083 10.7785 26.0424 11.2848 26.0424 12.1529Z" fill="white"/>
<path id="Vector_5" d="M32.9868 14.4678C32.842 14.4678 32.842 14.5402 32.842 14.6125C32.842 14.7572 32.7696 15.0466 32.625 15.1912C32.3356 15.4807 31.9016 15.553 31.4675 15.553C29.9485 15.553 29.0079 14.2508 29.0079 13.0933C29.0079 12.5146 29.0804 11.8636 29.5868 11.2848C29.9485 10.9231 30.4548 10.7785 31.1781 10.7785C31.8293 10.7785 32.3356 10.9955 32.5527 11.1402C32.6973 11.2848 32.842 11.5742 32.842 11.7912C32.842 11.8636 32.842 12.0082 32.9868 12.0082C33.1314 12.0082 33.1314 11.8636 33.1314 11.7912C33.1314 11.7189 33.1314 11.6465 33.1314 11.5742C33.1314 11.4295 33.1314 11.2125 33.1314 11.0678C33.1314 10.9231 33.1314 10.8508 33.1314 10.7785C33.1314 10.7061 33.1314 10.7061 33.1314 10.7061C33.1314 10.6338 33.0591 10.5614 32.9868 10.5614C32.7697 10.5614 32.5527 10.4891 32.3356 10.4891C31.9016 10.4167 31.4675 10.4167 31.3229 10.4167C30.3825 10.4167 29.6591 10.6338 29.1527 11.2125C28.5738 11.7912 28.3569 12.587 28.3569 13.1657C28.3569 14.0338 28.6464 14.7572 29.225 15.2635C29.8037 15.7699 30.5994 16.0593 31.6121 16.0593C32.0462 16.0593 32.625 15.987 32.9143 15.9147C33.0591 15.8424 33.0591 15.8424 33.1314 15.6976C33.2037 15.4807 33.276 14.8295 33.276 14.7572C33.1314 14.4678 32.9868 14.4678 32.9868 14.4678Z" fill="white"/>
<path id="Vector_6" d="M39.3525 15.6253C39.2802 15.6253 39.1356 15.6253 39.0633 15.6253C38.9185 15.6253 38.8462 15.553 38.8462 15.3358C38.8462 15.0466 38.8462 14.4678 38.8462 13.8168V12.587C38.8462 11.5019 38.8462 11.2848 38.8462 11.0678C38.8462 10.7785 38.9185 10.7785 39.0633 10.7061C39.1356 10.7061 39.2079 10.7061 39.2079 10.7061C39.2802 10.7061 39.3525 10.6338 39.3525 10.5614C39.3525 10.4891 39.2802 10.4167 39.1356 10.4167C38.9908 10.4167 38.7016 10.4167 38.5568 10.4167C38.4845 10.4167 38.4844 10.4167 38.4121 10.4167H38.3398C38.1952 10.4167 37.9058 10.4167 37.6164 10.4167C37.4718 10.4167 37.3995 10.4891 37.3995 10.5614C37.3995 10.6338 37.4718 10.7061 37.5441 10.7061C37.6164 10.7061 37.6887 10.7061 37.7612 10.7061C37.9781 10.7785 37.9781 10.7785 37.9781 11.0678C37.9781 11.2848 37.9781 11.5019 37.9781 12.587V12.7316H35.0844V12.587C35.0844 11.5019 35.0844 11.2848 35.0844 11.0678C35.0844 10.7785 35.157 10.7785 35.3016 10.7061C35.3739 10.7061 35.4462 10.7061 35.4462 10.7061C35.5185 10.7061 35.591 10.6338 35.591 10.5614C35.591 10.4891 35.5185 10.4167 35.3739 10.4167C35.2293 10.4167 34.9398 10.4167 34.7952 10.4167C34.7229 10.4167 34.7229 10.4167 34.6504 10.4167H34.5781C34.4335 10.4167 34.144 10.4167 33.8548 10.4167C33.71 10.4167 33.6377 10.4891 33.6377 10.5614C33.6377 10.6338 33.71 10.7061 33.7823 10.7061C33.8548 10.7061 33.9271 10.7061 33.9994 10.7061C34.2163 10.7785 34.2163 10.7785 34.2163 11.0678C34.2163 11.2848 34.2163 11.5019 34.2163 12.587V13.7444C34.2163 14.3955 34.2163 14.9741 34.2163 15.2635C34.2163 15.4807 34.144 15.553 34.0717 15.553C33.9994 15.553 33.9271 15.553 33.8548 15.553C33.7823 15.553 33.71 15.6253 33.71 15.6976C33.71 15.7699 33.7823 15.8424 33.9271 15.8424C34.0717 15.8424 34.3612 15.8424 34.5058 15.8424C34.5781 15.8424 34.5781 15.8424 34.6504 15.8424H34.7229C34.8675 15.8424 35.2293 15.8424 35.5185 15.8424C35.6633 15.8424 35.7356 15.7699 35.7356 15.6976C35.7356 15.6253 35.6633 15.553 35.591 15.553C35.5185 15.553 35.3739 15.553 35.3016 15.553C35.157 15.553 35.0844 15.4807 35.0844 15.2635C35.0844 14.9741 35.0844 14.3955 35.0844 13.7444V13.021H37.9781V13.7444C37.9781 14.3955 37.9781 14.9741 37.9781 15.2635C37.9781 15.4807 37.9058 15.553 37.8335 15.553C37.7612 15.553 37.6887 15.553 37.6164 15.553C37.5441 15.553 37.4718 15.6253 37.4718 15.6976C37.4718 15.7699 37.5441 15.8424 37.6887 15.8424C37.8335 15.8424 38.1227 15.8424 38.2675 15.8424C38.3398 15.8424 38.3398 15.8424 38.4121 15.8424C38.4121 15.8424 38.4121 15.8424 38.4844 15.8424C38.6293 15.8424 38.9908 15.8424 39.2802 15.8424C39.4251 15.8424 39.4974 15.7699 39.4974 15.6976C39.4974 15.6976 39.4251 15.6253 39.3525 15.6253Z" fill="white"/>
<path id="Vector_7" d="M45.2137 15.6261C45.1414 15.6261 45.0691 15.6261 44.9243 15.5538C44.852 15.5538 44.6351 15.4815 44.3456 14.8303C44.0562 14.0346 43.4052 12.3707 42.9712 11.358C42.8264 10.9963 42.6818 10.7069 42.6818 10.6346C42.6095 10.4175 42.5372 10.3452 42.4649 10.3452C42.3923 10.3452 42.32 10.4175 42.2477 10.6346L40.6562 14.9751C40.5116 15.3366 40.367 15.5538 40.1498 15.5538C40.0775 15.5538 40.0052 15.5538 39.9329 15.5538C39.8606 15.5538 39.7881 15.6261 39.7881 15.6984C39.7881 15.8432 39.9329 15.8432 40.0052 15.8432C40.2221 15.8432 40.4393 15.8432 40.6562 15.8432C40.7287 15.8432 40.801 15.8432 40.801 15.8432C40.801 15.8432 40.8733 15.8432 40.9456 15.8432C41.0902 15.8432 41.235 15.8432 41.3073 15.8432C41.4519 15.8432 41.452 15.7707 41.452 15.6984C41.452 15.6984 41.4519 15.5538 41.3073 15.5538H41.235C41.1627 15.5538 41.0179 15.5538 41.0179 15.4091C41.0179 15.2643 41.0179 15.1197 41.0902 14.9751L41.5243 13.7452H43.0435L43.6945 15.4815C43.6945 15.5538 43.6945 15.5538 43.6945 15.5538C43.6222 15.5538 43.6222 15.6261 43.6222 15.6984C43.6222 15.7707 43.767 15.8432 43.8393 15.8432C44.1285 15.8432 44.5625 15.8432 44.9243 15.8432C45.0691 15.8432 45.1414 15.7707 45.1414 15.6984C45.3583 15.6984 45.3583 15.6261 45.2137 15.6261ZM43.0435 13.3835H41.8137L42.3923 11.575L43.0435 13.3835Z" fill="white"/>
<path id="Vector_8" d="M51.4346 10.4175C51.2177 10.4175 51.0731 10.4175 50.9282 10.4175C50.8559 10.4175 50.8559 10.4175 50.7836 10.4175C50.7836 10.4175 50.7113 10.4175 50.639 10.4175C50.4942 10.4175 50.2773 10.4175 50.0601 10.4175C49.9878 10.4175 49.8432 10.4175 49.8432 10.5622C49.8432 10.6346 49.9155 10.7069 49.9878 10.7069C50.0601 10.7069 50.205 10.7069 50.2773 10.7069C50.4219 10.7793 50.4942 10.8516 50.4942 11.2856L50.5665 14.6857C50.4219 14.541 50.2773 14.3963 50.0601 14.1793C49.7709 13.8175 49.3367 13.3835 48.9751 13.0218C47.8899 11.8644 46.8772 10.7069 46.7324 10.6346L46.6601 10.5622C46.5878 10.4175 46.5155 10.3452 46.4432 10.3452C46.2984 10.3452 46.2984 10.5622 46.2984 10.7793V14.8303C46.2984 15.4091 46.2984 15.6261 46.1538 15.6261C46.0815 15.6261 45.9369 15.6984 45.8643 15.6984C45.792 15.6984 45.7197 15.7707 45.7197 15.8432C45.7197 15.9878 45.8643 15.9878 45.9369 15.9878C46.1538 15.9878 46.3709 15.9878 46.5155 15.9878C46.5878 15.9878 46.5878 15.9878 46.6601 15.9878H46.7324C46.8772 15.9878 47.0942 15.9878 47.3836 15.9878C47.5282 15.9878 47.6005 15.9155 47.6005 15.8432C47.6005 15.7707 47.5282 15.6984 47.4559 15.6984C47.3836 15.6984 47.239 15.6984 47.0942 15.6261C46.9495 15.5538 46.8772 15.4815 46.8772 14.9026L46.8049 11.7197C47.1665 12.0814 47.8176 12.8771 48.4686 13.6005C49.1921 14.3963 50.205 15.4091 50.2773 15.4815C50.7113 15.9155 50.7836 15.9155 50.8559 15.9155C51.0005 15.9155 51.0005 15.7707 51.0005 15.3366V11.2133C51.0005 10.7793 51.0005 10.7069 51.2177 10.6346C51.29 10.6346 51.3623 10.6346 51.3623 10.6346C51.4346 10.6346 51.5071 10.5622 51.5071 10.4899C51.5794 10.4175 51.4346 10.4175 51.4346 10.4175Z" fill="white"/>
<path id="Vector_9" d="M56.7147 10.4175H56.6422C56.6422 10.4175 56.5699 10.4175 56.4976 10.4175C56.353 10.4175 56.2082 10.4175 55.9913 10.4175H53.387C53.3147 10.4175 53.0253 10.4175 52.8084 10.4175C52.6635 10.4175 52.6635 10.4175 52.5912 10.3452H52.5189C52.4466 10.3452 52.4466 10.4175 52.3743 10.5622C52.3743 10.5622 52.2295 11.2133 52.2295 11.2856C52.2295 11.358 52.3018 11.4303 52.3018 11.4303C52.3743 11.4303 52.4466 11.358 52.4466 11.2856C52.4466 11.2133 52.5189 11.2133 52.5912 11.0686C52.6635 10.9239 52.8084 10.8516 53.2424 10.8516H54.1828V13.7452C54.1828 14.3963 54.1828 14.9751 54.1828 15.2643C54.1828 15.4815 54.1105 15.5538 54.038 15.5538C53.9657 15.5538 53.8934 15.5538 53.8211 15.5538C53.7488 15.5538 53.6764 15.6261 53.6764 15.6984C53.6764 15.7707 53.7487 15.8432 53.8934 15.8432C54.038 15.8432 54.3274 15.8432 54.472 15.8432C54.5445 15.8432 54.5445 15.8432 54.6168 15.8432H54.6891C54.8337 15.8432 55.1955 15.8432 55.4849 15.8432C55.6295 15.8432 55.7018 15.7707 55.7018 15.6984C55.7018 15.6261 55.6295 15.5538 55.5572 15.5538C55.4849 15.5538 55.3401 15.5538 55.2678 15.5538C55.1232 15.5538 55.0509 15.4815 55.0509 15.2643C55.0509 14.9751 55.0509 14.3963 55.0509 13.7452V10.8516H55.8467C56.6422 10.8516 56.6422 11.0686 56.6422 11.1409V11.2133C56.6422 11.2856 56.6422 11.4303 56.787 11.4303C56.8593 11.4303 56.9316 11.358 56.9316 11.2856C56.9316 11.2856 56.9316 11.1409 56.9316 11.0686C56.9316 10.9239 56.9316 10.6346 56.9316 10.4899C56.787 10.4899 56.787 10.4175 56.7147 10.4175Z" fill="white"/>
<path id="Vector_10" d="M67.9998 15.6256C67.9275 15.6256 67.855 15.6256 67.7104 15.5533C67.6381 15.5533 67.421 15.481 67.1318 14.8298C66.8423 14.1065 66.1914 12.3703 65.8296 11.3576C65.6848 10.9235 65.5402 10.6342 65.5402 10.5618C65.4679 10.3448 65.3956 10.2725 65.3233 10.2725C65.2508 10.2725 65.1785 10.3448 65.1062 10.5618L63.5146 14.9022C63.37 15.2639 63.2254 15.481 63.0083 15.481C62.936 15.481 62.8636 15.481 62.7913 15.481H62.719H62.6465C62.5742 15.481 62.5019 15.481 62.3573 15.481C62.1402 15.481 61.9233 15.3362 61.5615 14.9747C61.1998 14.6129 60.7657 14.0342 60.3317 13.4554L60.1871 13.2384C60.7657 12.732 60.9829 12.1533 60.9829 11.5746C60.9829 11.0682 60.6934 10.7065 60.4763 10.5618C60.1148 10.2725 59.6082 10.2725 59.1742 10.2725C59.0296 10.2725 58.8124 10.2725 58.5955 10.2725C58.4509 10.2725 58.3784 10.2725 58.3784 10.2725H58.3061C58.1615 10.2725 57.8721 10.2725 57.5829 10.2725C57.438 10.2725 57.3657 10.3448 57.3657 10.4171C57.3657 10.4895 57.438 10.5618 57.5103 10.5618C57.5829 10.5618 57.6552 10.5618 57.7275 10.5618C57.9444 10.6342 57.9444 10.6342 57.9444 10.9235C57.9444 11.1405 57.9444 11.3576 57.9444 12.4427V13.7448C57.9444 14.3959 57.9444 14.9747 57.9444 15.2639C57.9444 15.481 57.8721 15.5533 57.7998 15.6256C57.7275 15.6256 57.6552 15.6256 57.5829 15.6256C57.5103 15.6256 57.438 15.6979 57.438 15.7702C57.438 15.8428 57.5103 15.9151 57.6552 15.9151C57.7998 15.9151 58.1615 15.9151 58.3061 15.9151H58.3784C58.5232 15.9151 58.885 15.9151 59.1742 15.9151C59.319 15.9151 59.3913 15.8428 59.3913 15.7702C59.3913 15.6979 59.319 15.6256 59.2467 15.6256C59.1742 15.6256 59.0296 15.6256 58.9573 15.6256C58.8125 15.6256 58.7401 15.5533 58.7401 15.3362C58.7401 15.047 58.7401 14.4682 58.7401 13.8171V13.6725H59.6082C59.6808 13.7448 59.7531 13.8895 59.8977 14.0342C60.0423 14.2512 60.2594 14.4682 60.404 14.6852L60.4763 14.8298C60.8381 15.2639 61.0552 15.6256 61.3444 15.7702C61.5615 15.8428 61.7061 15.9151 62.1402 15.9151H62.6465C62.719 15.9151 62.7913 15.9151 62.8637 15.9151C62.936 15.9151 63.0083 15.9151 63.0083 15.9151C63.2254 15.9151 63.4423 15.9151 63.6594 15.9151C63.7317 15.9151 63.804 15.9151 63.804 15.9151C63.804 15.9151 63.8763 15.9151 63.9486 15.9151C64.0935 15.9151 64.2381 15.9151 64.3104 15.9151C64.4552 15.9151 64.4552 15.8428 64.4552 15.7702C64.4552 15.7702 64.4552 15.6256 64.3104 15.6256H64.2381C64.1658 15.6256 64.0212 15.6256 64.0212 15.481C64.0212 15.3362 64.0212 15.1916 64.0935 15.047L64.5275 13.8171H66.0465L66.6977 15.5533C66.6977 15.6256 66.6977 15.6256 66.6977 15.6256C66.6254 15.6256 66.6254 15.6979 66.6254 15.7702C66.6254 15.8428 66.77 15.9151 66.8423 15.9151C67.1318 15.9151 67.5658 15.9151 67.9275 15.9151C68.0721 15.9151 68.1445 15.8428 68.1445 15.7702C68.1445 15.6979 68.0721 15.6256 67.9998 15.6256ZM65.8296 13.3831H64.5998L65.1785 11.5746L65.8296 13.3831ZM60.1871 12.1533C60.1871 12.5874 60.0423 13.0214 59.8254 13.1661C59.6805 13.2384 59.4636 13.3108 59.319 13.3108C58.9573 13.3108 58.6678 13.2384 58.5955 13.2384V10.8512C58.6678 10.8512 58.8125 10.7788 59.0296 10.7788C59.7531 10.7788 60.1871 11.2852 60.1871 12.1533Z" fill="white"/>
<path id="Vector_11" d="M70.1711 10.4167H70.0265C69.7371 10.4167 69.4477 10.4167 69.2308 10.4167C69.1582 10.4167 69.0859 10.4167 69.0859 10.4167H69.0136C68.869 10.4167 68.5796 10.4167 68.2902 10.4167C68.1455 10.4167 68.0732 10.4891 68.0732 10.5614C68.0732 10.6338 68.1455 10.7061 68.2178 10.7061C68.2901 10.7061 68.3627 10.7061 68.435 10.7061C68.6519 10.7785 68.6519 10.7785 68.6519 11.0678C68.6519 11.2848 68.6519 11.5019 68.6519 12.587V13.7444C68.6519 14.3955 68.6519 14.9741 68.6519 15.2635C68.6519 15.4807 68.5796 15.553 68.5073 15.553C68.435 15.553 68.3627 15.553 68.2902 15.553C68.2179 15.553 68.1455 15.6253 68.1455 15.6976C68.1455 15.7699 68.2178 15.8424 68.3627 15.8424C68.435 15.8424 68.5073 15.8424 68.5073 15.8424C68.5796 15.8424 68.6519 15.8424 68.7242 15.8424C68.869 15.8424 69.0136 15.8424 69.0136 15.8424C69.0136 15.8424 69.0859 15.8424 69.2308 15.8424C69.3031 15.8424 69.4477 15.8424 69.5923 15.8424C70.0265 15.8424 70.3158 15.9147 70.6052 15.9147C71.5456 15.9147 72.2691 15.6253 72.7754 15.1189C73.2817 14.6125 73.5712 13.8891 73.5712 13.0933C73.5712 12.1529 73.2094 11.5742 72.8477 11.2848C72.0519 10.4167 70.8221 10.4167 70.1711 10.4167ZM72.7754 13.3104C72.7754 13.9614 72.5583 14.6125 72.269 14.9018C71.835 15.3358 71.2561 15.553 70.6775 15.553C69.8817 15.553 69.5923 15.4084 69.52 15.3358C69.52 15.3358 69.4477 15.1912 69.4477 14.8295C69.4477 14.6849 69.4477 14.0338 69.4477 13.3104V12.4423C69.4477 11.9359 69.4477 11.2125 69.4477 10.9231C69.4477 10.8508 69.4477 10.8508 69.52 10.8508C69.52 10.8508 69.8094 10.7785 69.954 10.7785C70.8946 10.7785 71.6179 10.9231 72.1967 11.5742C72.4137 11.8636 72.7754 12.37 72.7754 13.3104Z" fill="white"/>
<path id="Vector_12" d="M77.3323 14.7572C77.26 14.7572 77.1877 14.8295 77.1877 14.9018C77.1154 15.1912 77.0431 15.2635 76.8982 15.3358C76.7536 15.4084 76.4642 15.4084 76.2473 15.4084C75.5961 15.4084 75.5238 15.3358 75.5238 14.9018C75.5238 14.8295 75.5238 14.3231 75.5238 14.0338V13.1657C75.6686 13.1657 76.3196 13.1657 76.4642 13.1657C76.7536 13.1657 76.7536 13.3104 76.7536 13.3827C76.7536 13.4551 76.7536 13.5274 76.7536 13.5997C76.7536 13.6721 76.8259 13.7444 76.8982 13.7444C77.0431 13.7444 77.0431 13.5997 77.0431 13.5274C77.0431 13.4551 77.0431 13.238 77.0431 13.0933C77.0431 12.9487 77.0431 12.8763 77.1154 12.804C77.1154 12.7316 77.1154 12.7316 77.1154 12.7316C77.1154 12.6593 77.0431 12.587 77.0431 12.587C76.9708 12.587 76.9708 12.6593 76.8982 12.7316C76.8259 12.804 76.7536 12.804 76.609 12.804C76.4642 12.804 75.9578 12.804 75.5238 12.804V10.8508C75.6686 10.8508 76.3196 10.8508 76.4642 10.8508C76.8259 10.9231 76.8982 10.9955 76.8982 11.0678C76.8982 11.1402 76.8982 11.2125 76.8982 11.2848C76.8982 11.4295 76.9708 11.4295 77.0431 11.4295C77.1154 11.4295 77.1154 11.4295 77.1877 11.2848C77.1877 11.2125 77.1877 11.0678 77.1877 10.9955C77.1877 10.9231 77.1877 10.8508 77.1877 10.8508C77.1877 10.7061 77.1877 10.6338 77.26 10.6338C77.26 10.5614 77.26 10.5614 77.26 10.5614C77.26 10.4167 77.1877 10.4167 77.1877 10.4167C77.1154 10.4167 77.1154 10.4167 77.1154 10.4167C77.0431 10.4167 76.9708 10.4167 76.8259 10.4167C76.6813 10.4167 75.3069 10.4167 75.2346 10.4167H74.9452C74.8006 10.4167 74.5834 10.4167 74.4388 10.4167C74.294 10.4167 74.2217 10.4891 74.2217 10.5614C74.2217 10.6338 74.294 10.7061 74.3665 10.7061C74.4388 10.7061 74.5111 10.7061 74.5834 10.7061C74.8005 10.7785 74.8006 10.7785 74.8006 11.0678C74.8006 11.2848 74.8006 11.5019 74.8006 12.587V13.7444C74.8006 14.3955 74.8006 14.9741 74.8006 15.2635C74.8006 15.4807 74.728 15.553 74.6557 15.553C74.5834 15.553 74.5111 15.553 74.4388 15.553C74.3665 15.553 74.294 15.6253 74.294 15.6976C74.294 15.7699 74.3665 15.8424 74.5111 15.8424C74.5834 15.8424 74.6557 15.8424 74.6557 15.8424C74.728 15.8424 74.8005 15.8424 74.8729 15.8424C75.0175 15.8424 75.1621 15.8424 75.1621 15.8424C75.3069 15.8424 75.4515 15.8424 75.7409 15.8424H75.8855C76.1027 15.8424 76.4642 15.8424 76.8982 15.8424C77.1877 15.8424 77.26 15.8424 77.3323 15.6253C77.3323 15.4807 77.4048 14.9743 77.4048 14.9018C77.4771 14.9018 77.4771 14.7572 77.3323 14.7572Z" fill="white"/>
</g>
</svg>
